# xmcd
#
# Track frame offsets:
#	150
#	32154
#	70197
#	101602
#	133112
#	152268
#	176820
#	191413
#	209411
#	224661
#
# Disc length: 3421 seconds
#
# Revision: 1
# Processed by: cddbd v1.5.2PL0 Copyright (c) Steve Scherf et al.
# Submitted via: audiograbber 1.83.01
#
DISCID=920d5b0a
DTITLE=Grateful Dead - 86-12-30 Henry J Kaiser Convention Centre, Oakland CA
DYEAR=1900
DGENRE=
TTITLE0=Hell In A Bucket
TTITLE1=Althea
TTITLE2=CC Rider
TTITLE3=Cumberland Blues
TTITLE4=My Brother Esau
TTITLE5=When Push Comes To Shove
TTITLE6=BIODTL
TTITLE7=Greatest Story Ever Told
TTITLE8=Don't Ease Me In
TTITLE9=The Music Never Stopped
EXTD=
EXTT0=
EXTT1=
EXTT2=
EXTT3=
EXTT4=
EXTT5=
EXTT6=
EXTT7=
EXTT8=
EXTT9=
PLAYORDER=
